# xmcd
#
# Track frame offsets:
#	150
#	27925
#	58119
#	74980
#	103733
#	124233
#	165667
#	194359
#	214036
#	243621
#	253319
#	283104
#
# Disc length: 4174 seconds
#
# Revision: 0
# Processed by: cddbd v1.5PL3 Copyright (c) Steve Scherf et al.
# Submitted via: dBpowerAMP V4.0
#
DISCID=c5104c0c
DTITLE=聖經-舊約 - Disc 28
DYEAR=1900
DGENRE=
TTITLE0=28-01-歷代志上第1章
TTITLE1=28-02-歷代志上第2章
TTITLE2=28-03-歷代志上第3章
TTITLE3=28-04-歷代志上第4章
TTITLE4=28-05-歷代志上第5章
TTITLE5=28-06-歷代志上第6章
TTITLE6=28-07-歷代志上第7章
TTITLE7=28-08-歷代志上第8章
TTITLE8=28-09-歷代志上第9章
TTITLE9=28-10-歷代志上第10章
TTITLE10=28-11-歷代志上第11章
TTITLE11=28-12-歷代志上第12章
EXTD=
EXTT0=
EXTT1=
EXTT2=
EXTT3=
EXTT4=
EXTT5=
EXTT6=
EXTT7=
EXTT8=
EXTT9=
EXTT10=
EXTT11=
PLAYORDER=
